<svg width="299" height="130" viewBox="0 0 299 130" fill="none" xmlns="http://www.w3.org/2000/svg">
<path d="M31.0471 44.5119C30.9882 44.4063 30.8999 44.3272 30.8116 44.2216C27.8963 41.8997 26.1589 38.9709 25.1577 35.6728C24.8337 34.5646 24.7748 33.4036 25.0104 32.2691C25.0399 32.058 25.0693 31.8205 25.0988 31.6094C25.4521 31.5303 25.5699 31.7941 25.7466 31.9788C26.6006 32.7968 27.484 33.5883 28.3969 34.3799C29.3686 35.1978 29.9576 35.1187 30.5465 34.0369C32.7256 30.0263 34.6986 25.9366 35.7882 21.5566C36.2593 19.6305 36.6127 17.6516 37.1722 15.7518C37.29 15.2505 37.555 14.7756 37.9084 14.3798C39.0274 13.2452 40.2936 12.2162 41.6482 11.3191C41.8543 11.1872 42.0899 11.108 42.3255 11.0553C44.7107 9.65683 47.4199 8.70696 50.2469 8.23203C53.8983 7.59878 57.6971 7.94179 61.1424 9.1819C61.4663 9.31382 61.8197 9.39298 62.1436 9.44575C64.0577 10.422 65.854 11.583 67.4736 12.9286C69.211 14.327 70.6834 15.9893 72.0968 17.678C73.0981 18.8389 73.3631 20.1582 73.3631 21.5302C73.3925 25.3561 73.952 29.1292 74.5115 32.9023C74.541 33.0606 74.5704 33.2453 74.5999 33.4036C74.9238 34.5646 75.395 34.7757 76.6023 34.2216C79.0464 33.1134 81.3728 31.8469 83.6697 30.554C83.9053 30.4221 84.1114 30.1318 84.4648 30.3165C84.9948 32.0844 84.7298 33.8258 84.2292 35.5672C83.3163 38.7071 81.0489 40.8443 78.0452 42.4538C77.4563 42.7704 76.8379 43.1134 76.2195 43.4037C76.0134 43.5092 75.7778 43.5884 75.7483 43.8522C75.4244 43.7731 75.1005 43.905 74.9238 44.1688C73.0686 44.9076 71.184 45.5145 69.2993 46.1477C68.6221 46.3852 67.9448 46.6227 67.2675 46.8865C66.9435 46.8865 66.7963 46.6755 66.5902 46.5171C65 45.0396 63.027 44.1161 60.7596 43.9841C59.3167 43.905 57.9032 44.3535 56.8431 45.1979C55.194 46.4908 53.9867 48.2058 53.3977 50.1055C53.3094 50.343 53.3683 50.686 52.9266 50.686C52.4554 50.5541 51.9548 50.5277 51.4837 50.5541C45.1819 50.6069 39.4397 48.8654 33.9624 46.2797C33.2262 45.963 32.5195 45.5673 31.9011 45.0923C31.695 44.8285 31.695 44.3272 31.0471 44.5119Z" fill="#F66B72"/>
<path d="M74.8943 44.0634C74.8943 43.8523 74.8649 43.5885 75.1594 43.5093C75.4538 43.4301 75.5127 43.7468 75.6894 43.8523C76.1606 44.855 76.8084 45.752 77.633 46.5172C80.0476 48.7336 82.1973 51.1874 84.347 53.6413C86.3494 55.9104 88.4991 58.074 90.5898 60.2376C92.3272 62.0318 93.5051 64.2218 93.9763 66.5701C94.2707 67.9421 94.2413 69.3669 93.8879 70.7126C93.564 72.0318 93.0339 73.2983 92.2978 74.4593C91.591 75.6202 90.2659 76.3854 88.7935 76.5174C87.38 76.702 85.9666 76.702 84.5531 76.5174C84.0819 76.4382 83.7875 76.5437 83.5813 76.9659C83.493 77.177 83.3458 77.3617 83.1691 77.4936C82.6685 77.7838 82.8157 78.1005 82.9335 78.4963C83.9936 81.5042 85.0537 84.5121 86.1138 87.52C86.4672 88.681 86.6439 89.8683 86.6144 91.0557C86.6439 95.937 85.3776 100.607 83.9936 105.277C83.0807 108.364 82.1384 111.452 81.2255 114.565C81.0783 115.066 80.99 115.568 80.9016 116.069C80.8133 116.57 80.3716 116.623 79.9299 116.729C78.1041 117.098 76.2195 117.23 74.3643 117.441C72.4208 117.652 70.4772 117.678 68.5337 117.863C68.0331 117.916 67.503 117.942 67.0613 117.573C66.5902 116.887 66.5902 116.016 66.1485 115.304C64.3816 112.56 62.3497 109.948 60.0529 107.494C59.0222 106.386 58.0504 105.225 56.902 104.222C56.2836 103.694 56.1952 103.694 55.783 104.354C54.7523 105.858 53.5744 107.256 52.2198 108.549C49.5696 111.161 46.831 113.668 44.0629 116.175C43.0911 117.045 42.031 117.81 40.5881 117.995C39.3808 118.338 38.2029 118.074 37.025 117.942C34.8459 117.678 32.6373 117.52 30.4582 117.467C29.7515 117.467 29.5159 117.098 29.4864 116.544C29.0153 108.681 27.2484 101.108 23.8325 93.7734C23.5381 94.2483 23.4497 94.7232 23.2436 95.1454C23.1258 95.4356 23.008 95.7523 22.8902 96.0425C22.7724 96.3064 22.6546 96.5702 22.3013 96.5966C21.9479 96.623 21.7712 96.3855 21.624 96.148C21.3295 95.6731 21.035 95.2246 20.7111 94.7496C20.6228 94.6441 20.6228 94.4594 20.3872 94.433C20.1222 94.9079 19.8866 95.3829 19.6216 95.8578C19.5038 96.0689 19.386 96.2272 19.2093 96.3855C19.0032 96.623 18.5909 96.6757 18.3259 96.491C18.2964 96.4647 18.2375 96.4383 18.2081 96.3855C18.0903 96.28 18.002 96.148 17.9136 96.0161C17.0891 94.3802 16.1173 92.8235 15.4695 91.1348C15.2928 90.7918 15.2633 90.4224 15.3811 90.053C15.7934 89.6309 16.294 89.8419 16.7652 89.9475C18.267 90.3169 19.8571 90.3433 21.3884 90.0003C22.7724 89.71 22.8019 89.6045 22.6546 88.338C22.478 87.2298 22.3896 86.0952 22.3602 84.987C22.3896 83.7469 22.5074 82.5068 22.743 81.2667C22.8313 80.6862 22.6546 80.4488 22.0068 80.3168C19.2387 79.7364 16.5885 78.8393 14.056 77.6783C13.4671 77.3881 12.7898 77.1506 12.4658 76.5701C11.7886 75.9633 11.6708 75.2772 11.9358 74.4857C12.0536 74.1691 12.1125 73.8261 12.2597 73.5094C12.5247 72.9026 12.7309 72.8498 13.3198 73.2192C13.4376 73.3247 13.5848 73.3511 13.7321 73.3511C13.9382 72.4012 14.1738 71.4514 14.4683 70.5279C15.2339 68.074 16.3235 65.7257 17.4719 63.4038C19.2387 59.7627 21.3295 56.2798 23.7442 52.9552C25.9528 49.9737 28.4852 47.2032 31.0177 44.4592C31.0472 44.4592 31.0766 44.4592 31.1061 44.4328C31.2827 44.2745 31.4594 44.1162 31.7539 44.2745C32.0778 44.4592 31.96 44.6966 31.8422 44.9077C31.8717 45.2243 31.6067 45.409 31.4005 45.5937C30.6938 46.2006 30.1637 46.9658 29.4864 47.599C29.0447 48.0212 29.2214 48.285 29.7515 48.4697C33.9036 50.0792 38.1145 51.5832 42.5611 52.4539C44.593 52.8497 46.6248 53.2191 48.6567 53.5093C50.3941 53.7732 51.4248 52.8761 52.4849 51.9526C52.6616 51.7415 52.7204 51.5041 52.7204 51.2666C52.7499 51.0291 52.691 50.7653 52.9855 50.6333C53.2211 49.6835 53.6039 48.76 54.1339 47.9156C55.1057 46.227 56.4308 44.8286 58.4921 44.1162C59.6406 43.7204 60.9068 43.6676 62.1142 43.9842C64.0871 44.4328 65.854 45.4354 67.1497 46.8339C67.827 47.0977 67.8859 47.7046 68.0331 48.2323C68.1509 48.7072 68.3865 48.76 68.8282 48.5753C70.8895 47.731 72.9803 46.9394 75.0416 46.0951C75.5422 45.884 75.6011 45.6729 75.3361 45.2507C75.1005 44.9077 74.7177 44.5647 74.8943 44.0634Z" fill="black"/>
<path d="M72.0083 1.63867C72.6267 1.16373 73.3335 0.767952 74.0108 0.372172C74.747 -0.0763786 75.7187 -0.129149 76.4844 0.266631C77.25 0.60964 77.9273 1.05819 78.5457 1.55951C80.872 3.40649 82.6389 5.62285 84.2585 7.97115C85.5247 9.81812 86.9676 11.5859 88.6167 13.1954C90.8252 15.3327 92.8571 17.6018 94.7418 19.9765C94.4473 20.3459 94.2411 20.7944 94.0939 21.243C93.77 22.3775 93.0044 23.3274 92.1504 24.1981C90.9136 25.4646 89.5296 26.5728 87.9983 27.4963C84.5824 29.5544 81.2254 31.6388 77.6034 33.3538C77.2205 33.5385 76.8377 33.7232 76.4255 33.8815C75.5715 34.2246 75.277 34.0926 75.012 33.2747C74.9236 32.9317 74.8353 32.6151 74.8059 32.272C74.423 29.3433 74.0108 26.4145 73.8635 23.433C73.7163 20.5306 73.4807 17.6282 73.2746 14.7258C73.0096 10.8999 72.2734 7.10043 72.0672 3.24817C72.0378 2.69408 71.8317 2.16637 72.0083 1.63867Z" fill="#F66B72"/>
<path d="M17.0595 14.1953C19.6508 12.3219 22.4483 10.686 25.3931 9.28762C27.6311 8.12667 29.9869 7.15041 32.431 6.33246C33.6384 5.93668 34.8751 5.64645 36.1119 5.35621C36.642 5.22428 37.2309 5.32982 37.6432 5.64645C37.9966 5.88391 38.291 6.17415 38.5855 6.46439L39.6162 7.49342C39.0567 8.971 38.4088 10.4222 37.8788 11.9262C36.8776 14.9341 36.053 17.9684 35.4052 21.0555C34.9046 23.5093 33.9623 25.8576 32.9316 28.1795C32.1071 30.0529 31.1648 31.8735 30.2225 33.694C29.6924 34.6967 29.5746 34.6967 28.6323 34.0107C26.9538 32.7969 25.6581 31.293 24.4213 29.7362C22.2128 27.0186 20.1514 24.2481 18.7085 21.161C17.7957 19.2085 17.0595 17.1768 16.9711 15.0132C17.0006 14.7494 17.0006 14.4591 17.0595 14.1953Z" fill="#F66B72"/>
<path d="M12.4655 76.6757C15.528 78.4962 18.9439 79.5517 22.4776 80.2904C23.1844 80.4224 23.1844 80.4224 23.0371 81.0292C22.5365 83.4303 22.4776 85.8841 22.8605 88.3116C22.8899 88.6546 22.9488 88.9976 23.0077 89.3406C23.1255 89.6045 22.9782 89.8683 22.7132 89.9739C22.6838 89.9739 22.6543 90.0003 22.5954 90.0003C20.6519 90.6863 18.5022 90.739 16.4998 90.1586C16.1464 90.053 15.7931 89.8947 15.4103 90.1322C15.3808 89.4198 15.0274 88.7601 14.8213 88.0741C13.8201 84.9607 13.1134 81.768 12.7305 78.5226C12.7011 77.9158 12.5833 77.2825 12.4655 76.6757Z" fill="#F66B72"/>
<path d="M62.8207 9.18207C63.1741 8.97099 63.498 8.70713 63.7925 8.41689C66.0894 6.17414 68.563 4.0897 71.1838 2.13718C71.2427 2.1108 71.2722 2.08441 71.3311 2.08441C71.8906 2.95513 71.8022 3.93139 71.8611 4.88126C71.9789 7.30871 72.3912 9.68339 72.6562 12.1108C72.8329 13.6412 72.8623 15.1715 73.039 16.7019C73.039 16.8602 73.039 16.9921 73.0096 17.1504C72.9212 17.5462 72.7151 17.6518 72.3617 17.3615C72.185 17.1768 72.0084 16.9921 71.8611 16.781C69.5642 13.9578 66.7078 11.5567 63.4391 9.68339C63.1741 9.52508 62.8796 9.47231 62.8207 9.18207Z" fill="#F66B72"/>
<path d="M62.8207 9.18193C63.1152 9.2347 63.3802 9.36663 63.6158 9.55133C66.9139 11.4511 69.7703 13.8785 72.0967 16.7018C72.2733 16.9392 72.4795 17.1503 72.8034 17.5197C72.8034 17.1767 72.8034 16.992 72.8034 16.8337C72.6562 13.9313 72.3028 11.0289 71.9494 8.1529C71.7727 6.70171 71.6844 5.22413 71.5371 3.77294C71.4783 3.21884 71.4194 2.66475 71.331 2.11066L71.8905 1.71488C71.9494 1.71488 71.9789 1.71488 72.0083 1.66211H72.0378C72.3028 2.69114 72.45 3.72017 72.4795 4.77558C72.5973 6.5434 72.8623 8.28483 73.0684 10.0263C73.304 11.926 73.5101 13.8258 73.6279 15.7255C73.834 18.839 74.0107 21.9788 74.1874 25.1187C74.3641 27.7308 74.688 30.343 75.1592 32.9287C75.3948 34.2744 75.4537 34.1425 76.661 33.5884C79.9297 32.0316 83.11 30.2902 86.1725 28.3905C87.8805 27.335 89.6178 26.306 91.0902 24.9868C92.4742 23.7466 93.6521 22.3746 94.0939 20.6068C94.1822 20.2638 94.2705 19.9735 94.7417 20.0263C95.154 20.3165 94.9773 20.6859 94.8595 21.029C94.3883 22.7704 93.2399 24.1424 91.8853 25.4089C90.2068 26.9657 88.2044 28.153 86.202 29.3403L84.4351 30.3957C82.3149 31.6622 80.1358 32.8232 77.9272 33.905C77.3088 34.2216 76.661 34.5119 76.0132 34.7229C75.3359 34.934 74.9236 34.7757 74.6291 34.1952C74.4524 33.8522 74.3347 33.5092 74.3052 33.1398C73.7457 29.4459 73.2157 25.7255 73.1568 21.9788C73.1568 21.2664 73.0684 20.554 73.0095 19.8416C72.9506 19.2347 72.5973 18.7334 72.2144 18.2585C71.2427 16.9656 70.1237 15.7519 68.9458 14.5909C67.0906 12.8495 65.0293 11.3191 62.7913 10.0263C62.5557 9.89434 62.2318 9.78879 62.1434 9.49856C62.3496 9.4194 62.6146 9.31386 62.8207 9.18193Z" fill="black"/>
<path d="M17.0595 14.1952C17.1184 14.2743 17.1478 14.3799 17.1478 14.459C17.2951 17.467 18.3257 20.2638 19.857 22.9023C21.6827 26.0686 23.9207 29.0765 26.4827 31.7942C27.3366 32.7177 28.3084 33.5356 29.3391 34.2744C29.6041 34.3008 29.6335 34.1953 29.6924 34.1161C31.6065 30.7124 33.1967 27.1768 34.4924 23.5356C35.0519 21.8733 35.2874 20.1319 35.6997 18.4432C36.4948 15.0395 37.5843 11.715 38.9389 8.46956C39.0861 8.12655 39.145 7.70439 39.5573 7.46692L39.999 7.96824C40.1168 8.23209 40.1168 8.54872 39.9696 8.81257C39.3217 10.0263 38.9684 11.3192 38.4972 12.5857C38.4972 12.6384 38.4089 12.6648 38.4678 12.7176C38.5267 12.7704 38.4089 12.7176 38.5266 12.6648C39.2334 11.9788 39.999 11.3456 40.8235 10.7915C41.0886 10.6068 41.2947 10.3165 41.7364 10.3957L42.237 10.9762C41.972 11.24 41.6775 11.4511 41.3536 11.6358C40.1757 12.4537 39.0567 13.3772 38.0555 14.3799C37.6727 14.7493 37.4371 15.1714 37.2899 15.6464C36.7304 17.6253 36.3181 19.6569 35.8469 21.6622C35.3463 23.8258 34.6101 25.9103 33.6384 27.9419C32.6961 30.0264 31.7537 32.1108 30.6053 34.1161C30.517 34.2744 30.4581 34.4327 30.3697 34.591C29.9869 35.1451 29.4568 35.2771 28.8385 34.9604C28.5734 34.8021 28.3084 34.6174 28.0728 34.4327C27.0127 33.5356 25.9821 32.5858 25.0397 31.5831C23.5674 29.8153 22.1244 28.0475 20.8582 26.1741C19.592 24.3008 18.3552 22.401 17.5601 20.3166C16.9417 18.6543 16.5 16.9393 16.235 15.1978C16.2055 14.6173 16.6767 14.459 17.0595 14.1952Z" fill="black"/>
<path d="M69.5347 121.188C68.7102 120.238 68.0035 119.183 67.4145 118.101C67.1789 117.89 66.7961 117.758 67.0906 117.362C67.3262 117.652 67.6795 117.652 68.0329 117.652C69.5936 117.547 71.1249 117.467 72.6856 117.362C74.8647 117.204 77.0733 116.966 79.2524 116.65C79.5763 116.597 79.9002 116.518 80.2241 116.491C80.5186 116.438 80.7836 116.307 80.9603 116.095C81.1075 116.676 80.9898 117.256 80.9898 117.81C80.7836 118.391 80.8131 118.998 80.5775 119.552C80.4892 119.763 80.6069 119.869 80.872 119.869C81.137 119.869 81.402 119.763 81.6376 119.974C81.4315 120.238 81.1075 120.212 80.8131 120.212C77.9272 120.291 75.0708 120.502 72.2144 120.792C71.2721 120.924 70.4182 121.082 69.5347 121.188Z" fill="#F66B72"/>
<path d="M39.999 118.734C39.41 119.367 38.8505 120.027 38.4088 120.739C38.2616 120.977 38.1733 121.24 38.2027 121.504C38.2616 121.795 38.2322 122.085 38.0849 122.349C37.7904 121.214 36.8481 121.293 35.8469 121.293C33.2555 121.293 30.6347 121.399 28.0434 121.161C27.7194 121.135 27.3955 121.161 27.1305 120.95L27.7194 119.921C28.3673 119.13 28.9268 118.259 29.3979 117.388C29.4863 117.151 29.5452 116.887 29.5746 116.623C29.8985 117.335 29.9574 117.362 30.8409 117.362C32.7844 117.388 34.7574 117.52 36.6714 117.784C37.4665 117.89 38.2322 117.942 39.0272 117.995C39.6162 118.021 40.2051 117.995 40.7941 117.916C40.6468 118.259 40.3818 118.576 39.999 118.734Z" fill="#F66B72"/>
<path d="M4.22023 18.2587C4.16133 16.1214 4.27912 14.0106 4.5736 11.8998C4.66194 11.2138 4.83863 10.5541 5.04476 9.8945C5.0742 9.76258 5.1331 9.63065 5.22144 9.49872C5.30978 9.39318 5.45702 9.3668 5.57481 9.39318C5.6926 9.41957 5.7515 9.52511 5.7515 9.60427C5.7515 9.76258 5.72205 9.8945 5.6926 10.0264C5.22144 11.9526 4.95641 13.9315 4.92697 15.9104C4.77973 19.8945 5.01531 23.8787 5.60426 27.8365C5.78094 28.9711 6.07542 30.1057 6.45823 31.1875C6.60547 31.7152 6.8705 32.1901 7.22387 32.6387C7.34166 32.7442 7.40055 32.9025 7.25331 33.0344C7.10608 33.1664 6.89994 33.14 6.75271 33.008C6.51713 32.797 6.34044 32.5595 6.22265 32.2693C5.6926 31.1611 5.30978 30.0265 5.0742 28.8392C4.75028 27.1505 4.54415 25.4355 4.42636 23.7468C4.27912 21.9262 4.19078 20.1056 4.22023 18.2587Z" fill="#020202"/>
<path d="M41.7954 10.4484C40.647 11.1872 39.5574 12.0315 38.5268 12.9286C38.3501 12.955 38.2912 12.9023 38.3206 12.7439C38.674 11.4511 39.1452 10.1846 39.7341 8.94446C39.8814 8.62783 39.9992 8.31121 40.058 7.9682C40.7059 8.75976 41.2654 9.57771 41.7954 10.4484Z" fill="#F66B72"/>
<path d="M92.2386 33.7204C92.1798 34.0106 92.1503 34.3009 92.062 34.5911C91.4436 36.4908 90.6485 38.3642 89.6767 40.132C89.5 40.5014 89.2056 40.8444 88.8816 41.1347C88.7638 41.2402 88.5872 41.3194 88.4399 41.1874C88.2927 41.0819 88.2927 40.9236 88.381 40.7916C88.5577 40.5278 88.7933 40.2639 88.9405 39.9737C90.0301 37.942 91.0607 35.9104 91.5908 33.694C91.6497 33.4829 91.6497 33.2718 91.9736 33.3246C92.2386 33.351 92.1798 33.5621 92.2386 33.7204Z" fill="#050505"/>
<path d="M0.716161 27.1767C0.833951 28.496 0.716161 29.8152 0.95174 31.1345C0.981188 31.3192 1.01064 31.583 0.716161 31.6094C0.421687 31.6358 0.333345 31.3984 0.303897 31.1609C0.245002 30.4485 0.15666 29.7625 0.127213 29.0501C0.0388706 27.4142 -0.108366 25.7519 0.127213 24.116C0.15666 23.8521 0.0388706 23.4036 0.480582 23.4036C1.01063 23.4036 0.775056 23.8785 0.804503 24.1688C0.804503 25.1714 0.627819 26.1741 0.716161 27.1767Z" fill="#060606"/>
<path d="M93.8878 38.0475C93.8583 38.1003 93.8289 38.153 93.7994 38.2058C93.2988 38.9446 92.8277 39.6834 92.2976 40.3958C92.1209 40.6333 91.9442 41.029 91.5909 40.8443C91.2375 40.6596 91.5909 40.343 91.7381 40.1056C92.1798 39.4459 92.6215 38.8127 93.0633 38.1794C93.181 38.0475 93.2988 37.9156 93.4461 37.81C93.5344 37.7573 93.6522 37.7573 93.7405 37.81C93.8583 37.8364 93.9172 37.942 93.8878 38.0475Z" fill="#0B0B0B"/>
<path d="M71.9834 1.63718C71.9528 1.71951 71.9222 1.71951 71.8609 1.69207C71.8609 1.5823 71.9222 1.5823 71.9834 1.63718Z" fill="#E07476"/>
<path d="M58.7275 37.045C58.698 37.0713 58.698 37.1241 58.698 37.1769C58.7275 37.3352 58.8158 37.2033 58.8747 37.2033C60.2293 36.7019 61.2305 35.8048 62.2317 34.8814C62.8501 34.3009 63.3802 33.6676 64.0575 32.9816C63.5274 32.8761 63.1446 32.7705 62.7323 32.8233C62.4968 32.8497 62.2906 32.7969 62.2612 32.5331C62.2317 32.2692 62.4379 32.1373 62.7323 32.1109C63.5274 32.0054 64.3225 32.1901 64.9998 32.5858C65.7065 33.0608 66.3249 33.6149 66.855 34.2481C66.9433 34.3537 67.0022 34.4592 67.0611 34.5647C67.1495 34.7494 67.1789 34.9605 66.9433 35.0924C66.7666 35.198 66.5016 35.1716 66.3838 34.9869C66.3838 34.9869 66.3838 34.9605 66.3544 34.9605C66.0305 34.5647 65.6771 34.1953 65.2943 33.8259C65.2059 33.7468 65.1176 33.694 65.0587 33.6412C64.7642 33.6412 64.7642 33.8787 64.7053 34.0106C63.2035 37.4935 60.4943 40.2112 57.6085 42.8233C56.7545 43.6413 55.8416 44.3801 54.8699 45.0397C54.6638 45.198 54.4282 45.3299 54.1926 45.4355C53.6036 45.6993 52.8969 45.5938 52.4552 45.1716C52.1313 44.855 51.8662 44.4592 51.6601 44.0635C51.2184 43.2719 50.7472 42.5067 50.2761 41.7415C50.0405 41.3458 49.5988 41.0555 49.0687 40.9764C45.7706 40.264 43.5915 38.417 42.5903 35.541C42.0603 34.0106 42.0897 32.3748 42.6786 30.8444C42.9142 30.2375 42.7375 30.2639 42.2958 30.1056C41.3241 29.7626 40.3523 29.4724 39.2628 29.789C39.1155 29.8418 38.9094 29.789 38.8505 29.6307C38.7621 29.4724 38.7916 29.2877 38.9683 29.1821C39.1744 29.0238 39.4689 28.9447 39.7339 28.9447C40.4995 28.8919 41.2652 28.971 42.0014 29.1821C42.2075 29.2877 42.4431 29.3404 42.6786 29.3404C42.5314 28.6544 42.3547 27.9684 42.2369 27.2824C41.9719 25.884 42.0603 24.4328 42.4725 23.0607C42.6198 22.5594 42.8848 22.1109 43.2382 21.6887C44.0921 20.6597 45.3584 20.3958 46.654 21.0027C47.3608 21.3721 47.9792 21.8734 48.4503 22.4803C49.0687 23.2454 49.5399 24.0634 49.8933 24.9341C50.0405 25.3035 50.1877 25.4618 50.6883 25.4354C51.984 25.3826 53.2797 25.5937 54.4576 26.0423C54.6932 26.1742 54.9877 26.2534 55.2527 26.3061C55.3705 25.7784 55.4883 25.2771 55.6355 24.7494C55.9005 23.5884 56.4306 22.5066 57.1668 21.5304C57.8441 20.6597 58.698 19.9473 59.9937 20C61.3483 20 62.644 20.6069 63.4391 21.5832C64.2342 22.5594 64.7937 23.6676 65.1176 24.8286C65.2943 25.409 65.4415 26.0159 65.6182 26.5964C65.8832 26.6491 65.9421 26.4644 66.0599 26.3589C66.6488 25.8048 67.1789 25.2243 67.6206 24.5647C67.7678 24.3536 67.9445 24.1161 68.2685 24.3008C68.5924 24.4855 68.504 24.723 68.3862 24.9605C68.3273 25.0924 68.239 25.2243 68.1212 25.3299C66.0893 28.0212 63.3213 29.6307 59.6404 29.8418C59.4931 29.8418 59.3753 29.8681 59.2281 29.8945C59.1398 29.9209 59.0809 29.9473 59.022 30.0001C60.0821 32.2956 60.1115 34.5911 58.8747 36.8603C58.7864 36.913 58.7569 36.9922 58.7275 37.045Z" fill="black"/>
<path d="M53.0149 50.6597C53.0738 51.6887 52.5437 52.3747 51.6309 53.0344C50.7769 53.6412 49.6579 53.8787 48.5978 53.7204C46.4481 53.4565 44.2985 53.0871 42.1783 52.6122C37.7906 51.7151 33.668 50.2375 29.5748 48.6544C29.3392 48.5488 29.1036 48.4433 28.868 48.3114C29.1331 47.7573 30.8116 45.9103 31.9011 44.9868C36.5833 47.7309 41.7954 49.314 47.2727 50.2111C48.9512 50.4486 50.6297 50.5014 52.3082 50.4222C52.5437 50.3958 52.8971 50.2639 53.0149 50.6597Z" fill="white"/>
<path d="M74.8942 44.0634L75.9543 45.9632L68.0624 49.103C67.8857 48.2851 67.6796 47.4935 67.179 46.8339C67.2673 46.6756 67.444 46.5701 67.6207 46.5437L74.8942 44.0634Z" fill="white"/>
<path d="M42.6492 13.7993C42.8847 13.7993 43.1498 13.8257 43.3559 13.9313C44.3866 14.327 45.2994 14.9339 46.0062 15.7255C46.4773 16.2532 46.2417 16.6489 45.4761 16.7017C44.8872 16.7017 44.2688 16.7809 43.6798 16.8864C42.7375 17.0711 41.913 17.5724 41.3829 18.3112C41.2357 18.5751 41.0001 18.7862 40.7351 18.9709C40.5289 19.1292 40.205 19.1555 39.9694 19.0236C39.7339 18.8917 39.6455 18.6015 39.7339 18.3904C40.0872 17.4405 40.205 16.4379 40.6173 15.488C40.7645 15.0922 41.0001 14.7228 41.2651 14.3798C41.6185 13.984 42.1191 13.7729 42.6492 13.7993Z" fill="black"/>
<path d="M59.8465 13.087C61.4366 13.0078 62.8207 13.6675 64.0574 14.6173C64.6169 15.0659 64.4991 16.1213 63.8808 16.4907C63.6452 16.649 63.3507 16.6226 63.1151 16.4643C62.8207 16.2796 62.5556 16.0949 62.2906 15.8575C61.3777 15.0395 60.1115 14.6173 58.8158 14.6437C58.4036 14.6437 57.9913 14.6173 57.6085 14.5118C57.1962 14.4326 57.1079 14.1688 57.314 13.8522C57.579 13.5092 57.9913 13.2717 58.4625 13.1925C58.9042 13.1134 59.3753 13.087 59.8465 13.087Z" fill="#010000"/>
<path d="M38.9979 36.8866C39.0273 37.1504 38.7918 37.4407 38.5562 37.4143C38.3795 37.4143 38.2028 37.2824 38.2028 37.0977V37.0713C38.2028 36.8338 38.3795 36.6491 38.6151 36.5963C38.8507 36.5963 38.9684 36.7283 38.9979 36.8866Z" fill="#251314"/>
<path d="M34.7868 36.1742C34.993 36.2006 35.1697 36.3589 35.1402 36.57V36.5964C35.1108 36.7811 35.0224 36.9394 34.7868 36.9394C34.5513 36.9394 34.4335 36.7283 34.4335 36.5172C34.4335 36.3325 34.6102 36.2006 34.7868 36.1742Z" fill="#291516"/>
<path d="M70.9188 34.4327C71.1838 34.4327 71.3605 34.6174 71.3899 34.8549C71.4194 34.9604 71.3605 35.0924 71.2427 35.1187C71.2133 35.1187 71.1838 35.1451 71.1249 35.1187C70.8893 35.1451 70.6537 34.9604 70.6537 34.7494C70.6243 34.5647 70.7421 34.4591 70.9188 34.4327Z" fill="black"/>
<path d="M75.5124 36.3852C75.4535 36.5699 75.2769 36.7019 75.0413 36.7019C74.894 36.7282 74.7762 36.6227 74.7762 36.5172C74.7762 36.4908 74.7762 36.4644 74.7762 36.438C74.7762 36.2533 74.9824 36.095 75.1885 36.1214H75.218C75.3946 36.1214 75.5124 36.2533 75.5124 36.3852Z" fill="#271415"/>
<path d="M71.0367 39.3404C71.0072 39.5515 70.9189 39.657 70.7128 39.6306C70.5361 39.6306 70.3889 39.4987 70.3889 39.3668C70.3889 39.2085 70.5361 39.0765 70.6833 39.0765H70.7128C70.9778 39.1029 71.0072 39.2348 71.0367 39.3404Z" fill="black"/>
<path d="M36.7011 40.4487C36.7305 40.5806 36.6127 40.7126 36.4655 40.7389C36.436 40.7389 36.436 40.7389 36.4066 40.7389C36.2005 40.7389 36.0532 40.6598 36.0532 40.4487C36.0532 40.2904 36.171 40.1849 36.3477 40.1849C36.5244 40.1585 36.7011 40.264 36.7011 40.4487Z" fill="#291516"/>
<path d="M58.8748 37.2032C58.8159 37.3087 58.7275 37.3615 58.6392 37.2823C58.6097 37.256 58.6392 37.2032 58.7275 37.1768L58.8748 37.2032Z" fill="#793F40"/>
<path d="M58.7276 37.0449C58.6982 36.9657 58.7571 36.8866 58.8454 36.8602C58.8749 36.9393 58.816 37.0185 58.7276 37.0449Z" fill="#793F40"/>
<path d="M79.9004 75.8049C79.7826 75.9896 79.6943 76.2007 79.547 76.3854C79.3115 76.702 79.4292 76.9395 79.7532 77.0978C80.2832 77.3881 80.8722 77.6255 81.4611 77.7838C81.7556 77.8366 81.9912 78.0477 82.0501 78.3115C82.2562 78.9976 82.4918 79.6836 82.7274 80.3432C83.5813 82.8498 84.4648 85.33 85.3187 87.8366C85.5249 88.4699 85.6721 89.1295 85.7605 89.7628C85.7899 90.0794 85.7015 90.2113 85.3482 90.2377C84.347 90.3169 83.3163 90.3696 82.3151 90.3696C76.4845 90.396 70.6834 90.2113 64.8528 90.1322C60.4651 90.0794 56.1069 90.1322 51.7487 90.396C47.7438 90.6335 43.739 90.9765 39.7636 91.4778C36.0238 91.9528 32.3428 92.6916 28.6914 93.4303C27.6018 93.6414 26.4828 93.7997 25.3932 94.0108C24.9515 94.09 24.8043 93.958 24.716 93.615C24.392 92.4805 24.1565 91.3195 24.0092 90.1586C23.6853 88.0213 23.4203 85.8841 23.5675 83.7205C23.6558 82.2166 23.9503 80.7126 24.4509 79.2614C24.8337 78.1268 25.5994 77.2297 26.5122 76.3854C28.073 74.9606 29.6631 73.5094 31.1355 72.0055C32.4017 70.6598 33.4913 69.1822 34.3453 67.5727C34.4925 67.3616 34.5808 67.1242 34.6103 66.8867C34.6397 66.702 34.5514 66.5437 34.3453 66.4645C34.1686 66.3854 33.933 66.4645 33.8447 66.6228C33.7858 66.702 33.7563 66.8075 33.6974 66.8867C32.4017 69.3141 30.6349 71.5305 28.4558 73.4039C27.4251 74.3274 26.4239 75.2508 25.4227 76.2007C24.981 76.5701 24.6276 77.0187 24.3331 77.4936C24.2153 77.7311 24.0976 77.8102 23.7736 77.6783C21.035 76.4646 18.1786 75.4619 15.44 74.2218C14.4683 73.7733 14.4683 73.7997 14.6744 72.8498C14.9394 71.6624 15.2928 70.5279 15.7345 69.3933C18.0019 63.6149 21.035 58.1268 24.7454 52.9816C25.7466 51.6624 26.8067 50.3959 27.9552 49.1557C28.1613 48.9447 28.3085 48.7864 28.6914 48.9711C33.5502 51.1083 38.674 52.7178 43.9451 53.7204C45.5942 54.037 47.2727 54.4064 48.9512 54.4328C49.7757 54.38 50.5708 54.7231 51.0714 55.3299C51.6014 55.9368 52.1609 56.5436 52.7499 57.1241C52.9266 57.2824 52.956 57.5199 52.8971 57.731C52.3965 60.3431 51.9254 62.9289 51.5425 65.5674C51.1597 67.9949 50.7769 70.4223 50.3941 72.8234C50.2469 73.5622 50.4235 74.301 50.8947 74.9342L54.6051 79.8419C54.664 79.8947 54.6934 79.9474 54.7523 80.0266C55.3118 80.6335 55.7535 80.6335 56.2541 80.0002C56.6075 79.6308 56.8725 79.1823 57.0787 78.7337C57.7265 76.9659 58.7277 75.33 59.6111 73.6413C59.8762 73.1664 59.9351 72.6123 59.7584 72.0846C58.9338 69.1294 58.2566 66.1215 57.5498 63.14C57.167 61.5832 56.8725 60.0265 56.637 58.4698C56.8725 58.3115 57.0198 58.4698 57.167 58.5225C58.0504 58.8656 58.9927 59.0239 59.9645 58.9447C60.2884 58.8919 60.6124 59.0239 60.789 59.2613C61.378 60.0001 62.1142 60.6334 62.9681 61.1347C63.4099 61.4249 63.9105 61.6624 64.4405 61.7679C65.9718 62.0846 67.1202 62.8234 67.6503 64.1954C68.5632 66.6756 70.0944 68.9184 72.1557 70.739C74.0109 72.3485 76.1017 73.6941 78.3691 74.7495C78.8698 75.1189 79.547 75.2508 79.9004 75.8049Z" fill="white"/>
<path d="M54.6047 104.328C53.6035 105.673 52.4845 106.94 51.2477 108.127C48.8036 110.475 46.33 112.771 43.8564 115.093C43.2969 115.594 42.708 116.069 42.0602 116.465C41.2356 116.993 40.205 117.23 39.2038 117.151C37.9964 117.072 36.8185 116.993 35.6112 116.808C34.1388 116.597 32.637 116.491 31.1057 116.491C30.399 116.491 30.3695 116.491 30.3695 115.858C30.3401 113.642 29.8984 111.478 29.5744 109.288C29.0444 105.99 28.2493 102.744 27.1598 99.5518C26.8947 98.7867 26.8947 98.7603 27.7782 98.5492C30.8112 97.7576 33.9032 97.1508 37.0246 96.6494C43.2086 95.6468 49.422 95.5676 55.6354 95.9107C61.731 96.2537 67.8561 96.3328 73.9812 96.1217C76.1897 96.0426 78.3983 95.9898 80.6068 95.8051C81.932 95.6996 83.2571 95.5149 84.5822 95.251C84.8767 95.1983 85.1712 95.1455 85.5245 95.0927C85.4362 96.0954 85.2595 97.098 85.0239 98.1006C84.3466 101.346 83.3454 104.539 82.4031 107.731C81.7553 109.921 81.078 112.111 80.4301 114.328C80.3712 114.512 80.3123 114.697 80.2829 114.908C80.0768 115.779 80.0768 115.779 79.0756 115.937C76.6609 116.28 74.2462 116.491 71.8315 116.702C70.7125 116.808 69.5935 116.861 68.4745 116.966C68.0917 116.993 67.8855 116.94 67.7972 116.544C67.4733 115.462 66.9432 114.407 66.2365 113.483C63.969 110.291 61.4071 107.283 58.6096 104.486C58.1973 104.09 57.7851 103.694 57.3434 103.272C57.4906 103.14 57.6673 103.035 57.8734 103.008C59.6108 102.322 61.1421 101.32 62.6145 100.264C62.7322 100.185 62.8206 100.106 62.9089 100C63.0267 99.8685 63.0267 99.6574 62.9089 99.5254C62.7911 99.3935 62.5556 99.3407 62.3789 99.4463C62.2022 99.5518 62.0255 99.6574 61.8488 99.7893C59.9053 101.267 57.6673 102.375 55.2231 103.061C53.1618 103.668 51.1889 104.407 49.0686 104.829C48.9508 104.855 48.8036 104.908 48.6858 104.961C48.568 105.04 48.5091 105.146 48.5386 105.277C48.568 105.409 48.6564 105.489 48.8036 105.515C49.0981 105.541 49.3926 105.515 49.687 105.436C51.2772 105.093 52.8379 104.618 54.3692 104.143C54.5753 104.116 54.6636 104.169 54.6047 104.328Z" fill="white"/>
<path d="M79.9003 75.805C77.7506 74.776 75.6304 73.7734 73.7458 72.3749C70.9777 70.3433 68.7986 67.8894 67.6502 64.8287C67.179 63.5359 66.3545 62.586 64.9116 62.1111C64.7349 62.0847 64.5582 61.9791 64.4404 61.8472C65.7067 61.1348 66.4723 60.053 67.2085 58.9184C68.2686 57.3089 68.7986 55.5147 69.3876 53.7469C69.4465 53.5622 69.4465 53.3511 69.3876 53.1664C70.271 52.5596 71.1544 52.9553 72.0379 53.1928C72.774 53.4039 73.363 53.8524 74.0403 54.1955C76.1605 55.3564 78.369 56.3854 80.607 57.3617C82.1677 58.0477 83.699 58.8129 85.2597 59.5253C86.2609 60.0002 87.2621 60.5543 87.7922 61.5306C87.7922 61.5833 87.7627 61.6361 87.7627 61.6625C86.4082 64.09 85.3775 66.6229 84.2291 69.1296C83.0512 71.5306 81.461 73.6678 79.9003 75.805Z" fill="#F66B72"/>
<path d="M90.3837 120.897C90.0009 119.816 89.088 119.235 87.9985 118.866C86.9089 118.496 85.6133 118.391 84.4059 118.259C83.4341 118.153 82.4329 118.101 81.4612 118.127C81.1961 118.127 81.0489 118.074 80.99 117.837C80.3716 118.18 80.6366 118.787 80.4305 119.262C80.2244 119.737 80.4305 120.053 81.0489 120.106C81.1961 120.132 81.3728 120.159 81.4906 120.238C81.9912 120.528 82.4624 120.871 82.9041 121.24C83.1691 121.452 83.5225 121.636 83.4047 122.006C83.2869 122.375 82.8452 122.322 82.5213 122.375C79.2526 122.665 75.9545 122.85 72.6858 123.167C70.7129 123.351 70.5951 123.246 69.7705 121.504C69.7411 121.425 69.7117 121.372 69.6822 121.293C69.0638 120.317 68.2982 119.393 67.7387 118.391C67.6503 118.233 67.5325 118.127 67.3559 118.048C67.3853 118.101 67.3853 118.127 67.3853 118.18C66.6197 118.18 65.854 118.206 65.0884 118.18C62.0259 118.101 58.9928 118.312 55.9597 118.364C54.4873 118.391 53.015 118.364 51.572 118.496C50.2469 118.628 48.8923 118.523 47.5966 118.655C46.301 118.787 45.0347 118.655 43.7685 118.813C42.5906 118.945 41.4421 118.866 40.2642 118.971C40.0875 118.998 40.0287 118.945 39.9698 118.813C39.9992 118.787 40.0286 118.76 40.0286 118.734C39.6458 118.734 39.4692 119.024 39.263 119.262C38.3796 120.211 37.7906 121.267 37.8201 122.533C37.7906 122.665 37.7612 122.824 37.7612 122.956C37.6729 123.879 37.5551 124.011 36.5244 124.011C35.5821 124.011 34.6692 124.116 33.7563 124.143C30.9 124.275 28.0436 124.433 25.1872 124.671C24.8632 124.697 24.4804 124.803 24.3037 124.486C24.127 124.169 24.4215 123.932 24.6571 123.721C25.5405 122.929 26.365 122.058 27.1012 121.161C27.3074 120.766 27.7785 120.449 27.6313 119.921C27.2485 119.868 26.8657 120.027 26.5123 120.08C24.8927 120.317 23.332 120.739 21.8596 121.399C20.5934 121.953 19.5038 122.824 18.7087 123.905C17.7075 125.357 17.9136 127.336 19.7688 128.391C21.359 129.288 23.1258 129.657 24.9516 129.737C26.3945 129.816 27.8374 129.737 29.2803 129.763C30.4582 129.816 31.6361 129.737 32.7846 129.578C35.7882 129.103 38.7624 128.549 41.7366 128.048C43.7685 127.705 45.8003 127.388 47.8322 127.098C49.1279 126.913 50.4236 126.781 51.6898 126.597C52.8972 126.438 54.1045 126.333 55.3413 126.227C56.6664 126.095 57.9916 125.99 59.3167 125.884C60.6713 125.779 62.0259 125.62 63.3805 125.62C63.5571 125.62 63.7633 125.62 63.94 125.594C65.324 125.383 66.708 125.357 68.092 125.515C69.6822 125.647 71.2429 125.647 72.8036 125.726C74.6588 125.858 76.5434 125.884 78.4281 125.779C79.4882 125.7 80.5483 125.752 81.6084 125.647C83.0219 125.515 84.4059 125.33 85.7899 125.04C87.3801 124.697 88.7936 123.932 89.8242 122.824C90.4721 122.296 90.6193 121.557 90.3837 120.897Z" fill="#E1F0FF"/>
<path d="M87.7037 61.5569C86.143 60.0001 84.0228 59.2349 82.0204 58.2851C79.6646 57.1769 77.2205 56.1479 74.9236 54.9605C74.2463 54.5911 73.569 54.2217 72.9212 53.826C71.8905 53.1663 70.5948 52.9289 69.358 53.1663C69.0341 52.9552 68.6807 53.0608 68.3274 53.0344L67.4439 53.008C67.2967 52.7442 67.4734 52.5859 67.5617 52.4275C67.8562 51.8207 68.0034 51.161 68.0329 50.5014C68.0034 50.132 68.2685 49.789 68.6513 49.6835C69.947 49.2085 71.1838 48.6808 72.4794 48.2059C73.5984 47.7837 74.7469 47.3616 75.8364 46.8866C76.5432 46.57 76.5432 46.5964 77.0732 47.0977C78.6339 48.6017 80.1358 50.1584 81.5198 51.7943C84.17 54.8814 86.997 57.8101 89.8534 60.7653C91.208 62.1637 92.2092 63.826 92.7981 65.6202C93.8288 68.76 93.0926 71.6624 91.3258 74.4065C90.9135 75.0397 90.2657 75.4883 89.4706 75.673C87.851 76.016 86.1725 76.0688 84.5234 75.8049C84.494 75.4883 84.7001 75.3036 84.8179 75.1189C86.9087 71.3986 88.9405 67.6255 90.8252 63.7996C91.1491 63.1664 91.0902 62.9025 90.4423 62.4803C89.9123 62.1109 89.3528 61.7679 88.7638 61.4249C88.4105 61.1083 88.2338 61.1611 87.7037 61.5569Z" fill="white"/>
<path d="M85.7015 91.082C85.7015 91.9527 85.7309 92.7443 85.7015 93.5622C85.672 94.2482 85.6426 94.2482 84.877 94.4066C82.6684 94.8551 80.4009 95.119 78.1335 95.1981C73.0391 95.4092 67.9152 95.5675 62.8208 95.462C61.9669 95.462 61.1129 95.4092 60.2589 95.33C61.0245 94.7496 61.6724 94.1427 61.7902 93.272C61.9374 92.454 61.6135 91.6097 60.9362 91.0556C61.1129 90.8709 61.3485 90.9501 61.5546 90.9501C66.1484 90.8973 70.7127 91.1084 75.3065 91.1612C78.6047 91.1876 81.9028 91.3195 85.2009 91.082C85.407 91.082 85.5543 91.082 85.7015 91.082Z" fill="white"/>
<path d="M56.4013 91.0821C54.8406 92.7972 55.0173 93.6679 55.9302 95.0399C55.724 95.0927 55.5179 95.0927 55.3118 95.0663C51.7192 94.9344 48.0972 94.9608 44.5046 95.0927C40.5881 95.2774 36.7305 95.7787 32.9317 96.5967C30.9882 96.9661 29.0741 97.441 27.1601 97.9951C26.8361 98.1006 26.63 98.1006 26.4828 97.7312C26.0999 96.7814 25.6877 95.8579 25.246 94.8552C25.9233 94.7497 26.5417 94.6441 27.1895 94.5386C30.0165 94.0109 32.8434 93.4832 35.6998 92.9819C38.674 92.4542 41.6776 92.0848 44.6813 91.7945C48.3327 91.4251 52.0431 91.214 55.724 91.0557C55.9007 91.0293 56.1658 91.0293 56.4013 91.0821Z" fill="white"/>
<path d="M62.968 55.9369C61.9667 55.8841 61.0539 55.8577 60.1115 55.8313C59.7287 55.8313 59.2576 55.6466 58.9631 56.0424C58.6686 56.4382 58.9925 56.7812 59.1987 57.1242C59.4048 57.4672 59.5815 57.8102 59.8171 58.206C59.1103 58.3115 58.3741 58.2324 57.6968 57.9685C55.93 57.3353 54.6049 56.016 54.1337 54.3538C53.2503 51.6361 53.7509 49.1295 56.2245 47.2033C57.8146 45.9368 59.6993 45.6994 61.6428 46.4909C64.1459 47.52 65.471 50.1849 65.2649 52.5859C65.2354 52.8234 65.1176 52.8762 64.882 52.8234C64.2931 52.7179 63.7041 52.6651 63.1152 52.5596C62.9385 52.5332 62.7324 52.4804 62.5557 52.454C61.9667 52.4012 61.7312 52.6123 61.8489 53.14C61.9667 53.615 62.1434 54.0899 62.379 54.5121C62.6146 54.9606 62.8207 55.4356 62.968 55.9369Z" fill="#FFD574"/>
<path d="M88.4692 62.111C89.0582 62.454 89.7649 62.6387 90.0005 63.1136C90.295 63.6413 89.706 64.1427 89.441 64.644C87.3797 68.6018 85.4362 72.6387 82.992 76.4118C82.4325 77.2562 82.3442 77.3089 81.3135 76.9659C81.0191 76.8868 80.754 76.7812 80.489 76.5965C80.6068 76.3063 80.754 76.0161 80.9896 75.7786C82.9037 73.0345 84.7883 70.2904 85.9368 67.2034C86.6435 65.4619 87.4975 63.7469 88.4692 62.111Z" fill="white"/>
<path d="M23.3613 79.6045C22.419 79.4989 21.4766 79.3142 20.5932 79.0504C18.5319 78.4435 16.4411 77.8103 14.5271 76.8604C14.0853 76.6493 13.7025 76.4118 13.2903 76.1744C12.8485 75.9633 12.613 75.4884 12.7897 75.0398C12.878 74.7496 12.9663 74.4329 13.0547 74.0899C13.5258 74.1691 13.8792 74.4329 14.2326 74.5913C16.7651 75.7786 19.3859 76.834 22.0067 77.8631L22.5956 78.1005C23.6263 78.5227 23.6263 78.5227 23.3613 79.6045Z" fill="#FEFEFE"/>
<path d="M58.8451 72.2694C56.4893 72.4805 54.2219 73.0346 51.8956 73.2984C51.2772 73.3776 51.2477 73.3776 51.3066 72.7707C51.3655 72.2958 51.4538 71.7945 51.5127 71.3195C51.5422 71.0557 51.6894 70.9765 51.9839 70.9501C53.8685 70.7127 55.7532 70.4488 57.6378 70.185C58.2562 70.1058 58.2562 70.0794 58.4034 70.6071C58.5507 71.1348 58.6685 71.6625 58.8451 72.2694Z" fill="#FEFEFE"/>
<path d="M51.3657 74.0371C53.8981 73.8524 56.3128 73.2192 58.9042 73.0609C58.5214 73.9316 58.0797 74.7759 57.6085 75.5939C57.5496 75.7258 57.373 75.8049 57.2257 75.8313C56.0478 75.9632 54.8405 76.0952 53.6626 76.2271C53.162 76.3062 52.6908 76.0952 52.4847 75.673C52.1313 75.1453 51.6307 74.6968 51.3657 74.0371Z" fill="#FEFEFE"/>
<path d="M51.7189 70.1585C51.8661 69.3142 52.0133 68.5226 52.1311 67.7047C52.1606 67.4936 52.2489 67.4145 52.4845 67.4145C53.9863 67.2561 55.5176 67.1242 57.0194 66.9395C57.3728 66.8867 57.4906 66.9659 57.5789 67.2825C57.6967 67.8366 57.8439 68.3643 57.9912 68.9184C58.0501 69.1295 58.0795 69.2878 57.7261 69.3406C55.8121 69.6308 53.9274 69.9211 52.0133 70.2113C51.925 70.2113 51.8367 70.1849 51.7189 70.1585Z" fill="#FEFEFE"/>
<path d="M58.2269 94.9871C57.4024 95.0135 56.6367 94.5913 56.2834 93.9317C55.9594 93.272 56.1656 92.5069 56.8429 91.9264C57.5202 91.3195 58.4919 91.0557 59.4048 91.2404C60.406 91.3723 61.1128 92.2166 60.9655 93.1137C60.9361 93.3776 60.8183 93.615 60.6416 93.8525C60.0821 94.6177 59.2576 94.9343 58.2269 94.9871Z" fill="#FEFEFE"/>
<path d="M52.308 66.6229C52.4258 65.8313 52.5436 65.0662 52.6614 64.2746C52.6614 64.0371 52.8675 63.8788 53.1031 63.8788C54.1927 63.7997 55.2822 63.6941 56.3423 63.5886C56.5484 63.5622 56.6957 63.615 56.7546 63.8524C56.9018 64.5121 57.0785 65.1717 57.2257 65.8577C57.2846 66.0952 57.1668 66.1744 56.9313 66.2007C55.4589 66.3854 53.9865 66.5965 52.4847 66.7021C52.4847 66.7021 52.4258 66.6757 52.308 66.6229Z" fill="#FEFEFE"/>
<path d="M56.4895 62.797C55.3116 62.9817 54.1043 63.1137 52.897 63.1664C52.9559 62.3485 53.1325 61.5833 53.2503 60.8182C53.2798 60.5807 53.3976 60.4751 53.6626 60.4751C54.3399 60.4224 55.0172 60.3432 55.6944 60.2904C55.93 60.2641 56.0478 60.3432 56.0773 60.5543C56.195 61.2931 56.3423 62.0319 56.4895 62.797Z" fill="#FEFEFE"/>
<path d="M55.4588 79.6573L53.4269 76.9396L57.0195 76.5702C56.5778 77.652 56.3422 78.7074 55.4588 79.6573Z" fill="white"/>
<path d="M53.4269 59.7628C53.5447 58.9976 53.6625 58.3379 53.7803 57.6519C53.8098 57.4408 53.957 57.3617 54.1631 57.3353C55.0465 57.0978 55.7238 57.4936 55.8122 58.3379C55.8416 58.549 55.8711 58.7865 55.9005 58.9976C55.93 59.5253 55.9005 59.5517 55.3705 59.6044C54.7226 59.6836 54.1337 59.71 53.4269 59.7628Z" fill="white"/>
<path d="M54.3107 56.4909C53.6039 56.702 53.2211 56.4909 52.8678 56.0423C52.3966 55.4355 51.7782 54.9078 51.1598 54.2745L52.8383 53.0344C53.1033 53.6677 53.1622 54.2745 53.3978 54.8286C53.6628 55.4091 53.9573 55.9632 54.3107 56.4909Z" fill="white"/>
<path d="M65.8246 49.0501C65.5301 49.1029 65.4418 48.9973 65.3829 48.8654C65.2356 48.6016 65.0589 48.3641 64.9117 48.1002C64.7645 47.8364 64.3817 47.6517 64.5289 47.4142C64.7645 47.0712 65.2651 46.9129 65.6773 46.781C65.8246 46.7282 65.9424 46.8601 66.0013 46.9393C66.2074 47.1504 66.3841 47.3615 66.5607 47.5725C66.7963 47.9155 67.1202 48.3641 66.973 48.7071C66.7963 49.1029 66.119 48.7599 65.8246 49.0501Z" fill="#FFD574"/>
<path d="M67.1791 50.3167C67.1202 50.5542 67.0613 51.0028 66.973 51.4249C66.9141 51.6624 66.7668 51.7151 66.5018 51.7151C66.1779 51.7151 66.1484 51.5568 66.119 51.3458C66.0601 50.95 66.0012 50.5806 65.9129 50.1848C65.8245 49.789 65.9718 49.6835 66.3251 49.6307L66.5607 49.6043C67.1791 49.5252 67.2085 49.5516 67.1791 50.3167Z" fill="#FFD574"/>
<path d="M65.0586 46.1742L63.8807 46.8602L62.6145 45.9631C62.7323 45.752 62.909 45.5673 63.1151 45.409C63.2329 45.2771 63.4685 45.2507 63.6157 45.3562C64.1458 45.5673 64.6169 45.8575 65.0586 46.1742Z" fill="#FFD574"/>
<path d="M60.1705 45.2243C60.7006 44.512 61.1717 44.4592 62.3496 44.9605C61.9079 45.6201 61.9079 45.5937 61.2012 45.4354C60.8773 45.3563 60.5533 45.3035 60.1705 45.2243Z" fill="#FFD574"/>
<path d="M18.8852 93.3248C18.8263 93.5887 18.6791 93.7206 18.414 93.6678C18.0312 93.5887 17.5895 92.9818 17.6779 92.6388C17.7367 92.3749 18.0901 92.1902 18.2668 92.3749C18.5907 92.6388 18.6791 93.0346 18.8852 93.3248Z" fill="white"/>
<path d="M62.2317 58.7337C61.8194 58.7074 61.2305 58.1005 61.2894 57.7575C61.2894 57.5728 61.4661 57.4409 61.6722 57.4409C61.7605 57.4409 61.8194 57.4672 61.8783 57.52C62.1433 57.7311 62.3789 57.9686 62.5556 58.2324C62.6734 58.3907 62.6145 58.5754 62.4378 58.681C62.4084 58.7074 62.32 58.7337 62.2317 58.7337Z" fill="white"/>
<path d="M57.8736 45.2508C58.3153 44.987 58.8159 44.8286 59.346 44.7759C59.3165 45.0661 59.1987 45.2244 58.9337 45.2508C58.5803 45.3036 58.227 45.3564 57.903 45.4091C57.8441 45.3827 57.8441 45.33 57.8736 45.3036C57.903 45.2772 57.8736 45.2508 57.8736 45.2508Z" fill="#FFD574"/>
<path d="M66.2367 52.8232C66.1778 52.7969 66.119 52.7441 66.1484 52.6649V52.6386C66.1778 52.5594 66.2367 52.4539 66.384 52.5066C66.4134 52.5066 66.4134 52.5858 66.4134 52.6386C66.4134 52.7441 66.384 52.8496 66.2367 52.8232Z" fill="#FFD574"/>
<path d="M57.8737 45.2507V45.4354C57.8148 45.541 57.6676 45.5673 57.6381 45.5146C57.5498 45.3035 57.7265 45.3035 57.8737 45.2507Z" fill="#FFD574"/>
<path d="M54.605 104.328L54.3989 104.143C54.4872 104.037 54.605 103.958 54.6933 104.064C54.7817 104.169 54.7228 104.275 54.605 104.328Z" fill="#7E7E7E"/>
<path d="M27.1009 120.924C27.7488 120.845 28.3966 120.871 29.0444 120.977C29.5451 121.029 30.0751 121.056 30.5757 121.056C32.7254 121.056 34.875 121.056 37.0247 121.056C38.1142 121.056 38.1142 121.082 38.0554 122.032C38.0554 122.138 38.0554 122.217 38.0848 122.322C38.0554 122.639 38.0554 122.956 38.0259 123.272C37.9965 123.932 37.7903 124.116 37.0836 124.116C35.1106 124.143 33.1671 124.275 31.1941 124.407C29.1622 124.539 27.1009 124.591 25.0691 124.829C24.9218 124.829 24.804 124.855 24.6568 124.855C24.3918 124.908 24.0973 124.776 23.9795 124.539C23.8617 124.301 23.95 124.037 24.1856 123.879C25.2457 122.982 26.1292 121.927 27.1009 120.924Z" fill="black"/>
<path d="M69.5348 121.188C69.7998 120.95 70.1532 120.792 70.536 120.766C74.0991 120.37 77.6623 120.106 81.2549 119.974C81.3727 119.974 81.461 119.974 81.5788 119.974C82.1972 120.37 82.8156 120.792 83.3751 121.267C83.6696 121.504 83.9051 121.768 83.7579 122.164C83.6107 122.507 83.2573 122.507 82.9334 122.533L72.1851 123.351C70.6243 123.483 70.536 123.431 69.8882 122.164C69.682 121.874 69.5642 121.531 69.5348 121.188Z" fill="black"/>
<path d="M19.2386 85.0133C18.9147 84.9342 18.5908 84.855 18.2669 84.7495C18.0018 84.6439 18.0313 84.3009 18.3258 84.169C18.7675 84.0107 19.2681 84.169 19.5331 84.512C19.6215 84.6703 19.5626 84.8814 19.3859 84.9606C19.327 85.0134 19.2975 85.0133 19.2386 85.0133Z" fill="#110909"/>
<path d="M38.3205 12.744L38.5267 12.9287C38.4972 13.0342 38.3794 13.1925 38.2911 13.1397C38.0849 13.0342 38.2027 12.8759 38.3205 12.744Z" fill="#8E494A"/>
<path d="M51.0416 26.2797C55.3998 26.306 58.904 29.4987 58.8746 33.4037C58.8451 37.3087 55.282 40.4486 50.9238 40.4222C46.595 40.3958 43.0908 37.2296 43.0908 33.3245C43.0908 29.4459 46.5656 26.306 50.8943 26.2797C50.9532 26.2797 51.0121 26.2797 51.0416 26.2797Z" fill="#F66B72"/>
<path d="M63.7628 27.9419C63.6156 27.124 63.2917 26.3324 62.8205 25.62C62.4377 25.0395 61.7899 24.6438 61.0537 24.5382C59.8169 24.3535 58.7273 25.1451 58.5212 26.4116C58.4328 27.124 58.4623 27.8364 58.639 28.5224C58.6684 28.7335 58.8451 28.9182 58.7568 29.1557C58.5506 29.2612 58.4329 29.1557 58.3445 29.0237C57.8145 28.2849 57.1372 27.6517 56.3421 27.0976C56.1065 26.9393 56.0182 26.7018 56.0771 26.4643C56.3421 24.8812 56.8132 23.3509 57.8733 22.0316C59.0807 20.5276 60.9948 20.4749 62.4082 21.8469C62.9383 22.3746 63.3506 22.9815 63.6745 23.6411C64.0573 24.4854 64.3518 25.3562 64.5874 26.2269C64.6463 26.5963 64.6757 26.9657 64.6168 27.3351C64.5579 27.7572 64.0573 27.7308 63.7628 27.9419Z" fill="#FFFEFD"/>
<path d="M62.6442 36.0158C61.4074 37.8364 59.9645 39.5251 58.3154 41.0554C57.8148 41.5304 57.2848 42.0053 56.7842 42.4802C56.6369 42.6649 56.3719 42.7177 56.1658 42.5858L56.1363 42.5594C54.7817 41.7414 53.4566 41.9525 52.1315 42.6122C52.0431 42.6386 51.9548 42.6913 51.8665 42.7177C51.572 42.2692 51.2775 41.8206 50.983 41.3721C51.1597 41.1346 51.3658 41.2137 51.5425 41.1874C53.7216 41.0818 55.783 40.2375 57.2848 38.8391C57.4615 38.6544 57.6676 38.4961 57.9326 38.3905C59.6406 37.8628 61.2013 36.9657 62.4675 35.8311C62.6147 35.8047 62.7031 35.8575 62.6442 36.0158Z" fill="#F66B72"/>
<path d="M43.562 29.0237C42.9731 27.0976 42.7375 25.277 43.297 23.4036C43.4443 22.9023 43.6798 22.4274 44.0332 22.0316C44.5044 21.4511 45.3878 21.2664 46.0651 21.6358C46.5657 21.8733 47.0368 22.1899 47.3902 22.6121C48.097 23.3772 48.6565 24.2743 49.0098 25.2242C49.0687 25.3561 49.2454 25.5672 48.9804 25.6728C48.7742 25.7519 48.5092 25.8311 48.3031 25.5936C48.1559 25.4089 47.9792 25.2506 47.8319 25.0923C47.6258 24.8812 47.3902 24.7229 47.1252 24.5646C46.3007 24.1688 45.4761 24.3799 45.0933 25.1714C44.7694 25.8575 44.6516 26.5963 44.7988 27.335C44.8283 27.4934 44.9461 27.6517 44.7694 27.81C44.3571 28.1794 44.0038 28.5488 43.562 29.0237Z" fill="white"/>
<path d="M55.7534 43.2983C55.1939 43.826 54.5755 44.3009 53.9276 44.6967C53.6626 44.8814 53.2798 44.855 53.0442 44.6175C53.0148 44.5911 53.0147 44.5647 52.9853 44.5384C52.8675 44.4064 52.7497 44.2745 52.6614 44.1162C52.1902 43.4038 52.2491 43.2719 53.1325 42.9816C54.016 42.6914 54.8699 42.6386 55.7534 43.2983Z" fill="#F66B72"/>
<path d="M60.8184 26.6226C60.7889 26.9393 60.4944 27.2031 60.1411 27.2295C59.7582 27.2295 59.4343 26.9657 59.4343 26.6226C59.4343 26.5963 59.4343 26.5963 59.4343 26.5699C59.4343 26.2532 59.7288 26.0158 60.0822 26.0158C60.1116 26.0158 60.1116 26.0158 60.1411 26.0158C60.5239 26.0158 60.7889 26.2796 60.8184 26.6226Z" fill="white"/>
<path d="M46.5953 25.0924C46.8898 25.0924 47.0959 25.3034 47.0959 25.5409C47.0959 25.5673 47.0959 25.5937 47.0959 25.6201C47.0665 25.9103 46.8309 26.1214 46.507 26.1214C46.1831 26.095 45.918 25.8311 45.9475 25.5145C46.0064 25.2507 46.3008 25.066 46.5953 25.0924Z" fill="white"/>
<path d="M62.6442 36.016L62.4675 35.8577C62.5559 35.673 62.7326 35.5411 62.9387 35.4883C62.9387 35.673 62.8503 35.8841 62.6442 36.016Z" fill="#974E4F"/>
<path d="M78.2512 61.0291C78.2217 61.3193 78.2217 61.6095 78.1628 61.8998C78.1334 62.2164 77.9862 62.533 77.78 62.7705C77.6623 62.9288 77.4561 62.9816 77.2795 62.9024C77.1028 62.8497 77.0144 62.665 77.1028 62.5067C77.1028 62.5067 77.1028 62.4803 77.1322 62.4803C77.4856 61.7942 77.4561 61.0554 77.515 60.3167C77.515 60.1056 77.6034 59.9209 77.8684 59.9209C78.1334 59.9209 78.2512 60.0792 78.2512 60.2903C78.2512 60.5014 78.2512 60.7916 78.2512 61.0291Z" fill="#050303"/>
<path d="M75.4537 69.1557C75.2476 69.1821 75.0415 69.0766 74.9531 68.9183C74.8648 68.7599 74.9531 68.5753 75.1298 68.4961C75.3654 68.3642 75.601 68.2586 75.8365 68.1531C75.9838 68.0476 76.2193 68.0476 76.3371 68.1795C76.4549 68.3114 76.4549 68.5225 76.3371 68.6544C76.1605 68.9183 75.8365 69.103 75.4537 69.1557Z" fill="#120909"/>
<path d="M59.5229 54.3009C59.464 54.0898 59.3462 53.9051 59.1695 53.7468C58.9339 53.3774 58.7278 53.2718 58.1977 53.4565C57.3143 53.7468 56.5781 53.2191 56.5487 52.3484C56.5487 52.0053 56.6076 51.6623 56.7842 51.3457C56.9609 51.0291 56.9315 50.6597 56.6664 50.3958C56.4898 50.1848 56.3425 49.9473 56.2247 49.6834C56.1364 49.5251 56.1953 49.3404 56.3425 49.2613C56.3425 49.2613 56.3425 49.2613 56.372 49.2613C56.5487 49.1557 56.7548 49.2085 56.8726 49.3668C57.0493 49.5779 57.1965 49.8154 57.4026 50.0792C57.5793 49.9209 57.756 49.789 57.9327 49.657C58.0799 49.4987 58.3155 49.4724 58.4922 49.6043C58.5216 49.6043 58.5216 49.6307 58.5216 49.6307C58.6689 49.7362 58.6689 49.9209 58.5805 50.0528C58.5805 50.0792 58.5511 50.0792 58.5216 50.1056C57.8149 50.6597 58.1094 51.1346 58.5805 51.6623C58.9633 52.0581 58.9339 52.0845 59.464 51.847C60.3179 51.4249 60.9952 51.6887 61.2897 52.533C61.4958 53.0608 61.4664 53.6676 61.1719 54.1689C61.0247 54.4064 60.9069 54.5911 61.1425 54.8286C61.2897 54.9869 61.2897 55.2244 61.113 55.3563C60.9363 55.4882 60.6713 55.4882 60.5241 55.3299C60.5241 55.3299 60.5241 55.3299 60.4946 55.3035C60.259 54.9605 59.9646 55.066 59.6406 55.198C59.3756 55.3035 59.0811 55.409 58.8161 55.4882C58.5216 55.5937 58.1977 55.4618 58.1094 55.198C58.0799 55.1452 58.0799 55.0924 58.0799 55.0133C58.0799 54.6703 58.3155 54.5647 58.6983 54.6175C58.9634 54.5911 59.2284 54.4064 59.5229 54.3009Z" fill="#020101"/>
<path d="M50.0403 32.1901C50.0698 33.1399 49.8048 34.0898 49.2747 34.9078C49.098 35.198 48.833 35.4619 48.5091 35.6729C47.979 36.0423 47.184 35.9632 46.7717 35.4882C46.7423 35.4355 46.6834 35.3827 46.6539 35.3563C46.3889 34.9605 46.2417 34.512 46.2711 34.037C46.2417 33.0872 46.5067 32.1373 47.0662 31.3194C47.2429 31.0555 47.449 30.8444 47.6846 30.6597C48.4502 30.1056 49.2747 30.2639 49.7164 31.0291C49.9226 31.3457 50.0403 31.7679 50.0403 32.1901Z" fill="black"/>
<path d="M55.724 33.3774C55.6945 33.5357 55.6651 33.7204 55.6062 33.8787C55.2822 34.7494 54.6933 34.9605 53.8099 34.5647C52.5731 33.9842 51.6013 32.2692 51.778 31.0291C51.9252 30.132 52.7498 29.7362 53.6626 30.132C54.4872 30.5014 54.9583 31.161 55.3411 31.8998C55.5767 32.3483 55.6945 32.8497 55.724 33.3774Z" fill="#010000"/>
<path d="M60.406 53.7467C60.141 53.562 59.9054 53.3246 59.7287 53.0607C59.4637 52.7969 59.6109 52.6386 59.876 52.5066C60.141 52.3747 60.3766 52.4275 60.4649 52.7441C60.5827 53.0871 60.5533 53.4301 60.406 53.7467Z" fill="#FFD574"/>
<path d="M57.6087 51.7416C57.8738 51.8735 57.9327 52.0846 58.0799 52.2429C58.1683 52.3484 58.3155 52.4804 58.1388 52.6123C58.0505 52.6914 57.9032 52.7442 57.7854 52.7442C57.6087 52.7442 57.4909 52.6387 57.4615 52.4804C57.3731 52.2165 57.432 51.9527 57.6087 51.7416Z" fill="#FFD574"/>
<path d="M124.053 77.8047H114.104V88H107.934V62.4062H125.055V67.1699H114.104V73.0586H124.053V77.8047ZM134.195 88H128.043V62.4062H134.195V88ZM159.859 88H153.725L144.654 72.0742V88H138.484V62.4062H144.654L153.707 78.332V62.4062H159.859V88ZM178.615 83.2188H170.16L168.684 88H162.092L171.479 62.4062H177.279L186.736 88H180.109L178.615 83.2188ZM171.637 78.4551H177.139L174.379 69.5781L171.637 78.4551ZM209.992 88H203.857L194.787 72.0742V88H188.617V62.4062H194.787L203.84 78.332V62.4062H209.992V88ZM234.602 79.334C234.52 81.1152 234.039 82.6914 233.16 84.0625C232.281 85.4219 231.045 86.4766 229.451 87.2266C227.869 87.9766 226.059 88.3516 224.02 88.3516C220.656 88.3516 218.008 87.2559 216.074 85.0645C214.141 82.873 213.174 79.7793 213.174 75.7832V74.5176C213.174 72.0098 213.607 69.8184 214.475 67.9434C215.354 66.0566 216.613 64.6035 218.254 63.584C219.895 62.5527 221.793 62.0371 223.949 62.0371C227.055 62.0371 229.551 62.8574 231.438 64.498C233.324 66.127 234.396 68.377 234.654 71.248H228.502C228.455 69.6895 228.062 68.5703 227.324 67.8906C226.586 67.2109 225.461 66.8711 223.949 66.8711C222.414 66.8711 221.289 67.4453 220.574 68.5938C219.859 69.7422 219.484 71.5762 219.449 74.0957V75.9062C219.449 78.6367 219.789 80.5879 220.469 81.7598C221.16 82.9316 222.344 83.5176 224.02 83.5176C225.438 83.5176 226.521 83.1836 227.271 82.5156C228.021 81.8477 228.42 80.7871 228.467 79.334H234.602ZM244.094 88H237.941V62.4062H244.094V88ZM263.236 83.2188H254.781L253.305 88H246.713L256.1 62.4062H261.9L271.357 88H264.73L263.236 83.2188ZM256.258 78.4551H261.76L259 69.5781L256.258 78.4551ZM279.408 83.2539H290.148V88H273.238V62.4062H279.408V83.2539ZM129.326 124H123.191V113.312H114.104V124H107.934V98.4062H114.104V108.566H123.191V98.4062H129.326V124ZM149.119 113.154H139.416V119.254H150.877V124H133.246V98.4062H150.912V103.17H139.416V108.566H149.119V113.154ZM159.561 119.254H170.301V124H153.391V98.4062H159.561V119.254ZM179.072 115.316V124H172.902V98.4062H183.115C185.072 98.4062 186.801 98.7695 188.301 99.4961C189.812 100.211 190.979 101.236 191.799 102.572C192.631 103.896 193.047 105.402 193.047 107.09C193.047 109.586 192.15 111.584 190.357 113.084C188.576 114.572 186.127 115.316 183.01 115.316H179.072ZM179.072 110.553H183.115C184.311 110.553 185.219 110.254 185.84 109.656C186.473 109.059 186.789 108.215 186.789 107.125C186.789 105.93 186.467 104.975 185.822 104.26C185.178 103.545 184.299 103.182 183.186 103.17H179.072V110.553Z" fill="#13131A"/>
</svg>
